# xmcd CD database file
#
# Track frame offsets:
#	150
#	13234
#	28831
#	40411
#	52498
#	65339
#	77631
#	91385
#	104175
#	118520
#	133633
#	147242
#	160746
#	172748
#	183755
#	197827
#	211261
#	225646
#	238298
#	249630
#
# Disc length: 3516 seconds
#
# Revision: 0
# Processed by: cddbd v1.5.2PL0 Copyright (c) Steve Scherf et al.
# Submitted via: CDex 1.79
#
DISCID=210dba14
DTITLE=Frank Sinatra - A Voice CD1
DYEAR=2012
DGENRE=Jazz
TTITLE0=Beguing The Beguine
TTITLE1=Old Man River
TTITLE2=My Funny Valentine
TTITLE3=April In Paris
TTITLE4=You Make Me Feel So Young
TTITLE5=Almost Like Being In Love
TTITLE6=What'll I Do
TTITLE7=Young At Heart
TTITLE8=Stardust
TTITLE9=Nancy With The Laughing Face
TTITLE10=I Believe
TTITLE11=Dream
TTITLE12=No Orchids For My Lady
TTITLE13=The Cofee Song
TTITLE14=Sweet Lorraine
TTITLE15=Once In Love With Amy
TTITLE16=My One And Only Love
TTITLE17=Crazy Love
TTITLE18=That Old Black Magic
TTITLE19=Day By Day
EXTD=YEAR: 2012
EXTT0=
EXTT1=
EXTT2=
EXTT3=
EXTT4=
EXTT5=
EXTT6=
EXTT7=
EXTT8=
EXTT9=
EXTT10=
EXTT11=
EXTT12=
EXTT13=
EXTT14=
EXTT15=
EXTT16=
EXTT17=
EXTT18=
EXTT19=
PLAYORDER=
